<svg version="1.0"
  xmlns="http://www.w3.org/2000/svg" width="283" height="283" viewBox="0 0 283 64">
  <g transform="translate(0.000000,544.000000) scale(0.100000,-0.100000)" fill="#000000" stroke="none">
    <path d="M1767 3934 c-4 -4 -7 -517 -7 -1140 l0 -1134 25 -6 c41 -10 645 4
705 16 191 41 335 184 370 369 13 67 13 442 1 507 -26 133 -109 257 -200 299
-23 10 -41 21 -41 25 0 4 22 21 50 38 61 38 119 123 146 214 28 94 26 403 -4
501 -48 158 -138 246 -297 293 -50 14 -115 18 -400 21 -187 3 -343 1 -348 -3z
m621 -348 c18 -9 41 -31 52 -48 28 -47 44 -159 37 -275 -11 -200 -66 -253
-258 -253 l-89 0 0 301 0 302 113 -5 c80 -3 121 -9 145 -22z m-14 -915 c47
-11 101 -62 118 -110 9 -25 13 -102 13 -246 0 -190 -2 -214 -20 -250 -34 -67
-69 -80 -220 -80 l-130 0 -3 348 -2 347 102 0 c57 0 120 -5 142 -9z"/>
    <path d="M3324 3663 c3 -153 11 -471 16 -706 5 -235 12 -432 15 -437 8 -13
632 -13 640 -1 3 6 10 229 15 498 5 268 12 586 15 706 l6 217 -357 0 -357 0 7
-277z"/>
    <path d="M3355 2288 c-3 -8 -4 -144 -3 -303 l3 -290 320 0 320 0 0 300 0 300
-318 3 c-250 2 -319 0 -322 -10z"/>
  </g>
</svg>
